<svg xmlns="http://www.w3.org/2000/svg" viewBox="0 0 512 512">
  <!-- Font Awesome Free 6.0.0 by @fontawesome - https://fontawesome.com License - https://fontawesome.com/license/free (Icons: CC BY 4.0, Fonts: SIL OFL 1.1, Code: MIT License) -->
  <defs>
    <linearGradient id="gradient" x1="0%" y1="0%" x2="100%" y2="100%">
      <stop offset="0%" stop-color="#1a73e8" />
      <stop offset="100%" stop-color="#4285f4" />
    </linearGradient>
  </defs>
  <circle cx="256" cy="256" r="256" fill="url(#gradient)"/>
  <path fill="white" d="M256 384c-12.4 0-24.9-3.2-36.1-9.6L38.6 266.8c-8.3-4.8-13.4-13.7-13.4-23.4 0-14.7 11.9-26.6 26.6-26.6h73.8c-14.5-23.6-22.4-50.8-22.4-79.1 0-42.4 17.4-80.8 45.5-108.5 28-27.6 66.9-44.7 109.1-44.7 42.4 0 81.7 17.2 110.5 45.8 28.5 28.3 46.2 67.9 46.2 111.4 0 28.9-7.8 56.1-22.2 79.8h75.8c14.7 0 26.6 11.9 26.6 26.6 0 9.7-5.1 18.6-13.4 23.4L292.1 374.4c-11.2 6.4-23.7 9.6-36.1 9.6zm-204.3-143.6l183.5 106.4c12.8 7.4 28.5 7.4 41.6 0l183.5-106.4h-122c8.2-14.8 12.5-31.6 12.5-48.5 0-27.2-10.8-52-28.5-70.1-17.3-17.7-41.4-28.7-67.7-28.7-26.4 0-50.4 11-67.7 28.7-17.8 18.1-28.6 42.9-28.6 70.1 0 16.9 4.3 33.7 12.5 48.5H51.7z"/>
  <path fill="white" d="M150.7 262.8l6.4 6.4c12.5 12.5 32.7 12.5 45.2 0l63.5-63.5c12.5-12.5 12.5-32.7 0-45.2L259.5 154c-12.5-12.5-32.7-12.5-45.2 0l-63.5 63.5c-12.6 12.5-12.6 32.7-.1 45.3zm53.3-98.7c4.2-4.2 10.9-4.2 15.1 0l6.4 6.4c4.2 4.2 4.2 10.9 0 15.1l-63.5 63.5c-4.2 4.2-10.9 4.2-15.1 0l-6.4-6.4c-4.2-4.2-4.2-10.9 0-15.1l63.5-63.5zm91.3 35.5l-19.2 19.2c-6.2 6.2-6.2 16.4 0 22.6l67.1 67.1c6.2 6.2 16.4 6.2 22.6 0l19.2-19.2c6.2-6.2 6.2-16.4 0-22.6l-67.1-67.1c-6.2-6.2-16.4-6.2-22.6 0zm13.1 9.5c2.1-2.1 5.5-2.1 7.5 0l67.1 67.1c2.1 2.1 2.1 5.5 0 7.5l-19.2 19.2c-2.1 2.1-5.5 2.1-7.5 0l-67.1-67.1c-2.1-2.1-2.1-5.5 0-7.5l19.2-19.2z"/>
</svg>